  0
SECTION
  2
HEADER
  9
$ACADVER
  1
AC1014
  9
$HANDSEED
  5
FFFF
  9
$MEASUREMENT
 70
     1
  0
ENDSEC
  0
SECTION
  2
TABLES
  0
TABLE
  2
VPORT
  5
8
330
0
100
AcDbSymbolTable
 70
     4
  0
VPORT
  5
2E
330
8
100
AcDbSymbolTableRecord
100
AcDbViewportTableRecord
  2
*ACTIVE
 70
     0
 10
0.0
 20
0.0
 11
1.0
 21
1.0
 12
210.0
 22
148.5
 13
0.0
 23
0.0
 14
10.0
 24
10.0
 15
10.0
 25
10.0
 16
0.0
 26
0.0
 36
1.0
 17
0.0
 27
0.0
 37
0.0
 40
341.0
 41
1.24
 42
50.0
 43
0.0
 44
0.0
 50
0.0
 51
0.0
 71
     0
 72
   100
 73
     1
 74
     3
 75
     0
 76
     0
 77
     0
 78
     0
  0
ENDTAB
  0
TABLE
  2
LTYPE
  5
5
330
0
100
AcDbSymbolTable
 70
     1
  0
LTYPE
  5
14
330
5
100
AcDbSymbolTableRecord
100
AcDbLinetypeTableRecord
  2
BYBLOCK
 70
     0
  3

 72
    65
 73
     0
 40
0.0
  0
LTYPE
  5
15
330
5
100
AcDbSymbolTableRecord
100
AcDbLinetypeTableRecord
  2
BYLAYER
 70
     0
  3

 72
    65
 73
     0
 40
0.0
  0
LTYPE
  5
16
330
5
100
AcDbSymbolTableRecord
100
AcDbLinetypeTableRecord
  2
CONTINUOUS
 70
     0
  3
Solid line
 72
    65
 73
     0
 40
0.0
  0
ENDTAB
  0
TABLE
  2
LAYER
  5
2
100
AcDbSymbolTable
 70
2
  0
LAYER
  5
50
100
AcDbSymbolTableRecord
100
AcDbLayerTableRecord
  2
0
 70
0
  6
CONTINUOUS
  0
LAYER
  5
51
100
AcDbSymbolTableRecord
100
AcDbLayerTableRecord
  2
Calque_1
 70
0
  6
CONTINUOUS
  0
ENDTAB
  0
TABLE
  2
STYLE
  5
3
330
0
100
AcDbSymbolTable
 70
     1
  0
STYLE
  5
11
330
3
100
AcDbSymbolTableRecord
100
AcDbTextStyleTableRecord
  2
STANDARD
 70
     0
 40
0.0
 41
1.0
 50
0.0
 71
     0
 42
2.5
  3
txt
  4

  0
ENDTAB
  0
TABLE
  2
VIEW
  5
6
330
0
100
AcDbSymbolTable
 70
     0
  0
ENDTAB
  0
TABLE
  2
UCS
  5
7
330
0
100
AcDbSymbolTable
 70
     0
  0
ENDTAB
  0
TABLE
  2
APPID
  5
9
330
0
100
AcDbSymbolTable
 70
     2
  0
APPID
  5
12
330
9
100
AcDbSymbolTableRecord
100
AcDbRegAppTableRecord
  2
ACAD
 70
     0
  0
ENDTAB
  0
TABLE
  2
DIMSTYLE
  5
A
330
0
100
AcDbSymbolTable
 70
     1
  0
DIMSTYLE
105
27
330
A
100
AcDbSymbolTableRecord
100
AcDbDimStyleTableRecord
  2
ISO-25
 70
     0
  3

  4

  5

  6

  7

 40
1.0
 41
2.5
 42
0.625
 43
3.75
 44
1.25
 45
0.0
 46
0.0
 47
0.0
 48
0.0
140
2.5
141
2.5
142
0.0
143
0.03937007874016
144
1.0
145
0.0
146
1.0
147
0.625
 71
     0
 72
     0
 73
     0
 74
     0
 75
     0
 76
     0
 77
     1
 78
     8
170
     0
171
     3
172
     1
173
     0
174
     0
175
     0
176
     0
177
     0
178
     0
270
     2
271
     2
272
     2
273
     2
274
     3
340
11
275
     0
280
     0
281
     0
282
     0
283
     0
284
     8
285
     0
286
     0
287
     3
288
     0
  0
ENDTAB
  0
TABLE
  2
BLOCK_RECORD
  5
1
330
0
100
AcDbSymbolTable
 70
     1
  0
BLOCK_RECORD
  5
1F
330
1
100
AcDbSymbolTableRecord
100
AcDbBlockTableRecord
  2
*MODEL_SPACE
  0
BLOCK_RECORD
  5
1B
330
1
100
AcDbSymbolTableRecord
100
AcDbBlockTableRecord
  2
*PAPER_SPACE
  0
ENDTAB
  0
ENDSEC
  0
SECTION
  2
BLOCKS
  0
BLOCK
  5
20
330
1F
100
AcDbEntity
  8
0
100
AcDbBlockBegin
  2
*MODEL_SPACE
 70
     0
 10
0.0
 20
0.0
 30
0.0
  3
*MODEL_SPACE
  1

  0
ENDBLK
  5
21
330
1F
100
AcDbEntity
  8
0
100
AcDbBlockEnd
  0
BLOCK
  5
1C
330
1B
100
AcDbEntity
 67
     1
  8
0
100
AcDbBlockBegin
  2
*PAPER_SPACE
  1

  0
ENDBLK
  5
1D
330
1B
100
AcDbEntity
 67
     1
  8
0
100
AcDbBlockEnd
  0
ENDSEC
  0
SECTION
  2
ENTITIES
  0
LWPOLYLINE
  5
100
100
AcDbEntity
  8
Calque_1
 62
2
100
AcDbPolyline
 90
4
 70
1
 10
17.727997
 20
278.734949
 30
0.0
 10
32.727997
 20
278.734949
 30
0.0
 10
32.727997
 20
263.734949
 30
0.0
 10
17.727997
 20
263.734949
 30
0.0
  0
LWPOLYLINE
  5
101
100
AcDbEntity
  8
Calque_1
 62
2
100
AcDbPolyline
 90
4
 70
1
 10
37.727997
 20
278.734949
 30
0.0
 10
52.727997
 20
278.734949
 30
0.0
 10
52.727997
 20
263.734949
 30
0.0
 10
37.727997
 20
263.734949
 30
0.0
  0
LWPOLYLINE
  5
102
100
AcDbEntity
  8
Calque_1
 62
2
100
AcDbPolyline
 90
4
 70
1
 10
57.727997
 20
278.734949
 30
0.0
 10
72.727997
 20
278.734949
 30
0.0
 10
72.727997
 20
263.734949
 30
0.0
 10
57.727997
 20
263.734949
 30
0.0
  0
LWPOLYLINE
  5
103
100
AcDbEntity
  8
Calque_1
 62
2
100
AcDbPolyline
 90
4
 70
1
 10
17.728001
 20
258.734947
 30
0.0
 10
32.728001
 20
258.734947
 30
0.0
 10
32.728001
 20
243.734947
 30
0.0
 10
17.728001
 20
243.734947
 30
0.0
  0
LWPOLYLINE
  5
104
100
AcDbEntity
  8
Calque_1
 62
2
100
AcDbPolyline
 90
4
 70
1
 10
37.727997
 20
258.734947
 30
0.0
 10
52.727997
 20
258.734947
 30
0.0
 10
52.727997
 20
243.734947
 30
0.0
 10
37.727997
 20
243.734947
 30
0.0
  0
LWPOLYLINE
  5
105
100
AcDbEntity
  8
Calque_1
 62
2
100
AcDbPolyline
 90
4
 70
1
 10
57.728004
 20
258.734947
 30
0.0
 10
72.728004
 20
258.734947
 30
0.0
 10
72.728004
 20
243.734947
 30
0.0
 10
57.728004
 20
243.734947
 30
0.0
  0
LWPOLYLINE
  5
106
100
AcDbEntity
  8
Calque_1
 62
2
100
AcDbPolyline
 90
4
 70
1
 10
17.728004
 20
238.734947
 30
0.0
 10
32.728004
 20
238.734947
 30
0.0
 10
32.728004
 20
223.734947
 30
0.0
 10
17.728004
 20
223.734947
 30
0.0
  0
LWPOLYLINE
  5
107
100
AcDbEntity
  8
Calque_1
 62
2
100
AcDbPolyline
 90
4
 70
1
 10
37.728001
 20
238.734947
 30
0.0
 10
52.728001
 20
238.734947
 30
0.0
 10
52.728001
 20
223.734947
 30
0.0
 10
37.728001
 20
223.734947
 30
0.0
  0
LWPOLYLINE
  5
108
100
AcDbEntity
  8
Calque_1
 62
2
100
AcDbPolyline
 90
4
 70
1
 10
57.728012
 20
238.734947
 30
0.0
 10
72.728012
 20
238.734947
 30
0.0
 10
72.728012
 20
223.734947
 30
0.0
 10
57.728012
 20
223.734947
 30
0.0
  0
LWPOLYLINE
  5
109
100
AcDbEntity
  8
Calque_1
 62
7
100
AcDbPolyline
 90
4
 70
1
 10
12.727997
 20
283.734949
 30
0.0
 10
77.728012
 20
283.734949
 30
0.0
 10
77.728012
 20
218.734949
 30
0.0
 10
12.727997
 20
218.734949
 30
0.0
  0
LWPOLYLINE
  5
10a
100
AcDbEntity
  8
Calque_1
 62
7
100
AcDbPolyline
 90
3
 70
1
 10
28.157261
 20
179.490953
 30
0.0
 10
14.404067
 20
179.448103
 30
0.0
 10
21.243261
 20
191.269059
 30
0.0
  0
LWPOLYLINE
  5
10b
100
AcDbEntity
  8
Calque_1
 62
7
100
AcDbPolyline
 90
3
 70
1
 10
41.910454
 20
179.533740
 30
0.0
 10
28.157260
 20
179.490890
 30
0.0
 10
34.996454
 20
191.311846
 30
0.0
  0
SPLINE
  5
10c
100
AcDbEntity
  8
Calque_1
 62
7
100
AcDbSpline
 70
8
 71
3
 72
8
 73
4
 74
0
 40
0
 40
0
 40
0
 40
0
 40
1
 40
1
 40
1
 40
1
 10
122.282750
 20
277.812502
 30
0.0
 10
122.282750
 20
273.946509
 30
0.0
 10
119.148743
 20
270.812502
 30
0.0
 10
115.282750
 20
270.812502
 30
0.0
  0
SPLINE
  5
10d
100
AcDbEntity
  8
Calque_1
 62
7
100
AcDbSpline
 70
8
 71
3
 72
8
 73
4
 74
0
 40
0
 40
0
 40
0
 40
0
 40
1
 40
1
 40
1
 40
1
 10
115.282750
 20
270.812502
 30
0.0
 10
111.416757
 20
270.812502
 30
0.0
 10
108.282750
 20
273.946509
 30
0.0
 10
108.282750
 20
277.812502
 30
0.0
  0
SPLINE
  5
10e
100
AcDbEntity
  8
Calque_1
 62
7
100
AcDbSpline
 70
8
 71
3
 72
8
 73
4
 74
0
 40
0
 40
0
 40
0
 40
0
 40
1
 40
1
 40
1
 40
1
 10
108.282750
 20
277.812502
 30
0.0
 10
108.282750
 20
280.313361
 30
0.0
 10
109.616942
 20
282.624250
 30
0.0
 10
111.782750
 20
283.874680
 30
0.0
  0
SPLINE
  5
10f
100
AcDbEntity
  8
Calque_1
 62
7
100
AcDbSpline
 70
8
 71
3
 72
8
 73
4
 74
0
 40
0
 40
0
 40
0
 40
0
 40
1
 40
1
 40
1
 40
1
 10
111.782750
 20
283.874680
 30
0.0
 10
113.948558
 20
285.125109
 30
0.0
 10
116.616942
 20
285.125109
 30
0.0
 10
118.782750
 20
283.874680
 30
0.0
  0
SPLINE
  5
110
100
AcDbEntity
  8
Calque_1
 62
7
100
AcDbSpline
 70
8
 71
3
 72
8
 73
4
 74
0
 40
0
 40
0
 40
0
 40
0
 40
1
 40
1
 40
1
 40
1
 10
118.782750
 20
283.874680
 30
0.0
 10
120.948558
 20
282.624250
 30
0.0
 10
122.282750
 20
280.313361
 30
0.0
 10
122.282750
 20
277.812502
 30
0.0
  0
LWPOLYLINE
  5
111
100
AcDbEntity
  8
Calque_1
 62
7
100
AcDbPolyline
 90
3
 70
1
 10
55.663647
 20
179.576527
 30
0.0
 10
41.910454
 20
179.533677
 30
0.0
 10
48.749647
 20
191.354633
 30
0.0
  0
SPLINE
  5
112
100
AcDbEntity
  8
Calque_1
 62
7
100
AcDbSpline
 70
8
 71
3
 72
8
 73
4
 74
0
 40
0
 40
0
 40
0
 40
0
 40
1
 40
1
 40
1
 40
1
 10
137.122960
 20
277.846903
 30
0.0
 10
137.122960
 20
275.346044
 30
0.0
 10
135.788768
 20
273.035155
 30
0.0
 10
133.622960
 20
271.784725
 30
0.0
  0
SPLINE
  5
113
100
AcDbEntity
  8
Calque_1
 62
7
100
AcDbSpline
 70
8
 71
3
 72
8
 73
4
 74
0
 40
0
 40
0
 40
0
 40
0
 40
1
 40
1
 40
1
 40
1
 10
133.622960
 20
271.784725
 30
0.0
 10
131.457152
 20
270.534296
 30
0.0
 10
128.788768
 20
270.534296
 30
0.0
 10
126.622960
 20
271.784725
 30
0.0
  0
SPLINE
  5
114
100
AcDbEntity
  8
Calque_1
 62
7
100
AcDbSpline
 70
8
 71
3
 72
8
 73
4
 74
0
 40
0
 40
0
 40
0
 40
0
 40
1
 40
1
 40
1
 40
1
 10
126.622960
 20
271.784725
 30
0.0
 10
124.457152
 20
273.035155
 30
0.0
 10
123.122960
 20
275.346044
 30
0.0
 10
123.122960
 20
277.846903
 30
0.0
  0
SPLINE
  5
115
100
AcDbEntity
  8
Calque_1
 62
7
100
AcDbSpline
 70
8
 71
3
 72
8
 73
4
 74
0
 40
0
 40
0
 40
0
 40
0
 40
1
 40
1
 40
1
 40
1
 10
123.122960
 20
277.846903
 30
0.0
 10
123.122960
 20
280.347762
 30
0.0
 10
124.457152
 20
282.658651
 30
0.0
 10
126.622960
 20
283.909081
 30
0.0
  0
SPLINE
  5
116
100
AcDbEntity
  8
Calque_1
 62
7
100
AcDbSpline
 70
8
 71
3
 72
8
 73
4
 74
0
 40
0
 40
0
 40
0
 40
0
 40
1
 40
1
 40
1
 40
1
 10
126.622960
 20
283.909081
 30
0.0
 10
128.788768
 20
285.159510
 30
0.0
 10
131.457152
 20
285.159510
 30
0.0
 10
133.622960
 20
283.909081
 30
0.0
  0
SPLINE
  5
117
100
AcDbEntity
  8
Calque_1
 62
7
100
AcDbSpline
 70
8
 71
3
 72
8
 73
4
 74
0
 40
0
 40
0
 40
0
 40
0
 40
1
 40
1
 40
1
 40
1
 10
133.622960
 20
283.909081
 30
0.0
 10
135.788768
 20
282.658651
 30
0.0
 10
137.122960
 20
280.347762
 30
0.0
 10
137.122960
 20
277.846903
 30
0.0
  0
LWPOLYLINE
  5
118
100
AcDbEntity
  8
Calque_1
 62
7
100
AcDbPolyline
 90
1
 70
1
 10
122.282750
 20
277.812502
 30
0.0
  0
SPLINE
  5
119
100
AcDbEntity
  8
Calque_1
 62
7
100
AcDbSpline
 70
8
 71
3
 72
8
 73
4
 74
0
 40
0
 40
0
 40
0
 40
0
 40
1
 40
1
 40
1
 40
1
 10
152.019850
 20
278.497881
 30
0.0
 10
152.019850
 20
275.997022
 30
0.0
 10
150.685658
 20
273.686133
 30
0.0
 10
148.519850
 20
272.435703
 30
0.0
  0
SPLINE
  5
11a
100
AcDbEntity
  8
Calque_1
 62
7
100
AcDbSpline
 70
8
 71
3
 72
8
 73
4
 74
0
 40
0
 40
0
 40
0
 40
0
 40
1
 40
1
 40
1
 40
1
 10
148.519850
 20
272.435703
 30
0.0
 10
146.354042
 20
271.185274
 30
0.0
 10
143.685658
 20
271.185274
 30
0.0
 10
141.519850
 20
272.435703
 30
0.0
  0
SPLINE
  5
11b
100
AcDbEntity
  8
Calque_1
 62
7
100
AcDbSpline
 70
8
 71
3
 72
8
 73
4
 74
0
 40
0
 40
0
 40
0
 40
0
 40
1
 40
1
 40
1
 40
1
 10
141.519850
 20
272.435703
 30
0.0
 10
139.354042
 20
273.686133
 30
0.0
 10
138.019850
 20
275.997022
 30
0.0
 10
138.019850
 20
278.497881
 30
0.0
  0
SPLINE
  5
11c
100
AcDbEntity
  8
Calque_1
 62
7
100
AcDbSpline
 70
8
 71
3
 72
8
 73
4
 74
0
 40
0
 40
0
 40
0
 40
0
 40
1
 40
1
 40
1
 40
1
 10
138.019850
 20
278.497881
 30
0.0
 10
138.019850
 20
280.998740
 30
0.0
 10
139.354042
 20
283.309629
 30
0.0
 10
141.519850
 20
284.560059
 30
0.0
  0
SPLINE
  5
11d
100
AcDbEntity
  8
Calque_1
 62
7
100
AcDbSpline
 70
8
 71
3
 72
8
 73
4
 74
0
 40
0
 40
0
 40
0
 40
0
 40
1
 40
1
 40
1
 40
1
 10
141.519850
 20
284.560059
 30
0.0
 10
143.685658
 20
285.810488
 30
0.0
 10
146.354042
 20
285.810488
 30
0.0
 10
148.519850
 20
284.560059
 30
0.0
  0
SPLINE
  5
11e
100
AcDbEntity
  8
Calque_1
 62
7
100
AcDbSpline
 70
8
 71
3
 72
8
 73
4
 74
0
 40
0
 40
0
 40
0
 40
0
 40
1
 40
1
 40
1
 40
1
 10
148.519850
 20
284.560059
 30
0.0
 10
150.685658
 20
283.309629
 30
0.0
 10
152.019850
 20
280.998740
 30
0.0
 10
152.019850
 20
278.497881
 30
0.0
  0
LWPOLYLINE
  5
11f
100
AcDbEntity
  8
Calque_1
 62
7
100
AcDbPolyline
 90
1
 70
1
 10
137.122960
 20
277.846903
 30
0.0
  0
SPLINE
  5
120
100
AcDbEntity
  8
Calque_1
 62
7
100
AcDbSpline
 70
8
 71
3
 72
8
 73
4
 74
0
 40
0
 40
0
 40
0
 40
0
 40
1
 40
1
 40
1
 40
1
 10
166.860050
 20
278.532282
 30
0.0
 10
166.860050
 20
276.031423
 30
0.0
 10
165.525858
 20
273.720534
 30
0.0
 10
163.360050
 20
272.470104
 30
0.0
  0
SPLINE
  5
121
100
AcDbEntity
  8
Calque_1
 62
7
100
AcDbSpline
 70
8
 71
3
 72
8
 73
4
 74
0
 40
0
 40
0
 40
0
 40
0
 40
1
 40
1
 40
1
 40
1
 10
163.360050
 20
272.470104
 30
0.0
 10
161.194242
 20
271.219675
 30
0.0
 10
158.525858
 20
271.219675
 30
0.0
 10
156.360050
 20
272.470104
 30
0.0
  0
SPLINE
  5
122
100
AcDbEntity
  8
Calque_1
 62
7
100
AcDbSpline
 70
8
 71
3
 72
8
 73
4
 74
0
 40
0
 40
0
 40
0
 40
0
 40
1
 40
1
 40
1
 40
1
 10
156.360050
 20
272.470104
 30
0.0
 10
154.194242
 20
273.720534
 30
0.0
 10
152.860050
 20
276.031423
 30
0.0
 10
152.860050
 20
278.532282
 30
0.0
  0
SPLINE
  5
123
100
AcDbEntity
  8
Calque_1
 62
7
100
AcDbSpline
 70
8
 71
3
 72
8
 73
4
 74
0
 40
0
 40
0
 40
0
 40
0
 40
1
 40
1
 40
1
 40
1
 10
152.860050
 20
278.532282
 30
0.0
 10
152.860050
 20
281.033141
 30
0.0
 10
154.194242
 20
283.344030
 30
0.0
 10
156.360050
 20
284.594460
 30
0.0
  0
SPLINE
  5
124
100
AcDbEntity
  8
Calque_1
 62
7
100
AcDbSpline
 70
8
 71
3
 72
8
 73
4
 74
0
 40
0
 40
0
 40
0
 40
0
 40
1
 40
1
 40
1
 40
1
 10
156.360050
 20
284.594460
 30
0.0
 10
158.525858
 20
285.844889
 30
0.0
 10
161.194242
 20
285.844889
 30
0.0
 10
163.360050
 20
284.594460
 30
0.0
  0
SPLINE
  5
125
100
AcDbEntity
  8
Calque_1
 62
7
100
AcDbSpline
 70
8
 71
3
 72
8
 73
4
 74
0
 40
0
 40
0
 40
0
 40
0
 40
1
 40
1
 40
1
 40
1
 10
163.360050
 20
284.594460
 30
0.0
 10
165.525858
 20
283.344030
 30
0.0
 10
166.860050
 20
281.033141
 30
0.0
 10
166.860050
 20
278.532282
 30
0.0
  0
LWPOLYLINE
  5
126
100
AcDbEntity
  8
Calque_1
 62
7
100
AcDbPolyline
 90
1
 70
1
 10
152.019850
 20
278.497881
 30
0.0
  0
SPLINE
  5
127
100
AcDbEntity
  8
Calque_1
 62
7
100
AcDbSpline
 70
8
 71
3
 72
8
 73
4
 74
0
 40
0
 40
0
 40
0
 40
0
 40
1
 40
1
 40
1
 40
1
 10
122.317840
 20
262.787186
 30
0.0
 10
122.317840
 20
258.921193
 30
0.0
 10
119.183833
 20
255.787186
 30
0.0
 10
115.317840
 20
255.787186
 30
0.0
  0
SPLINE
  5
128
100
AcDbEntity
  8
Calque_1
 62
7
100
AcDbSpline
 70
8
 71
3
 72
8
 73
4
 74
0
 40
0
 40
0
 40
0
 40
0
 40
1
 40
1
 40
1
 40
1
 10
115.317840
 20
255.787186
 30
0.0
 10
111.451847
 20
255.787186
 30
0.0
 10
108.317840
 20
258.921193
 30
0.0
 10
108.317840
 20
262.787186
 30
0.0
  0
SPLINE
  5
129
100
AcDbEntity
  8
Calque_1
 62
7
100
AcDbSpline
 70
8
 71
3
 72
8
 73
4
 74
0
 40
0
 40
0
 40
0
 40
0
 40
1
 40
1
 40
1
 40
1
 10
108.317840
 20
262.787186
 30
0.0
 10
108.317840
 20
265.288045
 30
0.0
 10
109.652032
 20
267.598934
 30
0.0
 10
111.817840
 20
268.849364
 30
0.0
  0
SPLINE
  5
12a
100
AcDbEntity
  8
Calque_1
 62
7
100
AcDbSpline
 70
8
 71
3
 72
8
 73
4
 74
0
 40
0
 40
0
 40
0
 40
0
 40
1
 40
1
 40
1
 40
1
 10
111.817840
 20
268.849364
 30
0.0
 10
113.983648
 20
270.099793
 30
0.0
 10
116.652032
 20
270.099793
 30
0.0
 10
118.817840
 20
268.849364
 30
0.0
  0
SPLINE
  5
12b
100
AcDbEntity
  8
Calque_1
 62
7
100
AcDbSpline
 70
8
 71
3
 72
8
 73
4
 74
0
 40
0
 40
0
 40
0
 40
0
 40
1
 40
1
 40
1
 40
1
 10
118.817840
 20
268.849364
 30
0.0
 10
120.983648
 20
267.598934
 30
0.0
 10
122.317840
 20
265.288045
 30
0.0
 10
122.317840
 20
262.787186
 30
0.0
  0
LWPOLYLINE
  5
12c
100
AcDbEntity
  8
Calque_1
 62
7
100
AcDbPolyline
 90
1
 70
1
 10
166.860050
 20
278.532282
 30
0.0
  0
SPLINE
  5
12d
100
AcDbEntity
  8
Calque_1
 62
7
100
AcDbSpline
 70
8
 71
3
 72
8
 73
4
 74
0
 40
0
 40
0
 40
0
 40
0
 40
1
 40
1
 40
1
 40
1
 10
137.158050
 20
262.821587
 30
0.0
 10
137.158050
 20
260.320728
 30
0.0
 10
135.823858
 20
258.009839
 30
0.0
 10
133.658050
 20
256.759409
 30
0.0
  0
SPLINE
  5
12e
100
AcDbEntity
  8
Calque_1
 62
7
100
AcDbSpline
 70
8
 71
3
 72
8
 73
4
 74
0
 40
0
 40
0
 40
0
 40
0
 40
1
 40
1
 40
1
 40
1
 10
133.658050
 20
256.759409
 30
0.0
 10
131.492242
 20
255.508980
 30
0.0
 10
128.823858
 20
255.508980
 30
0.0
 10
126.658050
 20
256.759409
 30
0.0
  0
SPLINE
  5
12f
100
AcDbEntity
  8
Calque_1
 62
7
100
AcDbSpline
 70
8
 71
3
 72
8
 73
4
 74
0
 40
0
 40
0
 40
0
 40
0
 40
1
 40
1
 40
1
 40
1
 10
126.658050
 20
256.759409
 30
0.0
 10
124.492242
 20
258.009839
 30
0.0
 10
123.158050
 20
260.320728
 30
0.0
 10
123.158050
 20
262.821587
 30
0.0
  0
SPLINE
  5
130
100
AcDbEntity
  8
Calque_1
 62
7
100
AcDbSpline
 70
8
 71
3
 72
8
 73
4
 74
0
 40
0
 40
0
 40
0
 40
0
 40
1
 40
1
 40
1
 40
1
 10
123.158050
 20
262.821587
 30
0.0
 10
123.158050
 20
265.322446
 30
0.0
 10
124.492242
 20
267.633335
 30
0.0
 10
126.658050
 20
268.883765
 30
0.0
  0
SPLINE
  5
131
100
AcDbEntity
  8
Calque_1
 62
7
100
AcDbSpline
 70
8
 71
3
 72
8
 73
4
 74
0
 40
0
 40
0
 40
0
 40
0
 40
1
 40
1
 40
1
 40
1
 10
126.658050
 20
268.883765
 30
0.0
 10
128.823858
 20
270.134194
 30
0.0
 10
131.492242
 20
270.134194
 30
0.0
 10
133.658050
 20
268.883765
 30
0.0
  0
SPLINE
  5
132
100
AcDbEntity
  8
Calque_1
 62
7
100
AcDbSpline
 70
8
 71
3
 72
8
 73
4
 74
0
 40
0
 40
0
 40
0
 40
0
 40
1
 40
1
 40
1
 40
1
 10
133.658050
 20
268.883765
 30
0.0
 10
135.823858
 20
267.633335
 30
0.0
 10
137.158050
 20
265.322446
 30
0.0
 10
137.158050
 20
262.821587
 30
0.0
  0
LWPOLYLINE
  5
133
100
AcDbEntity
  8
Calque_1
 62
7
100
AcDbPolyline
 90
1
 70
1
 10
122.317840
 20
262.787186
 30
0.0
  0
SPLINE
  5
134
100
AcDbEntity
  8
Calque_1
 62
7
100
AcDbSpline
 70
8
 71
3
 72
8
 73
4
 74
0
 40
0
 40
0
 40
0
 40
0
 40
1
 40
1
 40
1
 40
1
 10
152.054950
 20
263.472565
 30
0.0
 10
152.054950
 20
260.971706
 30
0.0
 10
150.720758
 20
258.660817
 30
0.0
 10
148.554950
 20
257.410387
 30
0.0
  0
SPLINE
  5
135
100
AcDbEntity
  8
Calque_1
 62
7
100
AcDbSpline
 70
8
 71
3
 72
8
 73
4
 74
0
 40
0
 40
0
 40
0
 40
0
 40
1
 40
1
 40
1
 40
1
 10
148.554950
 20
257.410387
 30
0.0
 10
146.389142
 20
256.159958
 30
0.0
 10
143.720758
 20
256.159958
 30
0.0
 10
141.554950
 20
257.410387
 30
0.0
  0
SPLINE
  5
136
100
AcDbEntity
  8
Calque_1
 62
7
100
AcDbSpline
 70
8
 71
3
 72
8
 73
4
 74
0
 40
0
 40
0
 40
0
 40
0
 40
1
 40
1
 40
1
 40
1
 10
141.554950
 20
257.410387
 30
0.0
 10
139.389142
 20
258.660817
 30
0.0
 10
138.054950
 20
260.971706
 30
0.0
 10
138.054950
 20
263.472565
 30
0.0
  0
SPLINE
  5
137
100
AcDbEntity
  8
Calque_1
 62
7
100
AcDbSpline
 70
8
 71
3
 72
8
 73
4
 74
0
 40
0
 40
0
 40
0
 40
0
 40
1
 40
1
 40
1
 40
1
 10
138.054950
 20
263.472565
 30
0.0
 10
138.054950
 20
265.973424
 30
0.0
 10
139.389142
 20
268.284313
 30
0.0
 10
141.554950
 20
269.534743
 30
0.0
  0
SPLINE
  5
138
100
AcDbEntity
  8
Calque_1
 62
7
100
AcDbSpline
 70
8
 71
3
 72
8
 73
4
 74
0
 40
0
 40
0
 40
0
 40
0
 40
1
 40
1
 40
1
 40
1
 10
141.554950
 20
269.534743
 30
0.0
 10
143.720758
 20
270.785172
 30
0.0
 10
146.389142
 20
270.785172
 30
0.0
 10
148.554950
 20
269.534743
 30
0.0
  0
SPLINE
  5
139
100
AcDbEntity
  8
Calque_1
 62
7
100
AcDbSpline
 70
8
 71
3
 72
8
 73
4
 74
0
 40
0
 40
0
 40
0
 40
0
 40
1
 40
1
 40
1
 40
1
 10
148.554950
 20
269.534743
 30
0.0
 10
150.720758
 20
268.284313
 30
0.0
 10
152.054950
 20
265.973424
 30
0.0
 10
152.054950
 20
263.472565
 30
0.0
  0
LWPOLYLINE
  5
13a
100
AcDbEntity
  8
Calque_1
 62
7
100
AcDbPolyline
 90
1
 70
1
 10
137.158050
 20
262.821587
 30
0.0
  0
SPLINE
  5
13b
100
AcDbEntity
  8
Calque_1
 62
7
100
AcDbSpline
 70
8
 71
3
 72
8
 73
4
 74
0
 40
0
 40
0
 40
0
 40
0
 40
1
 40
1
 40
1
 40
1
 10
166.895140
 20
263.506966
 30
0.0
 10
166.895140
 20
261.006107
 30
0.0
 10
165.560948
 20
258.695218
 30
0.0
 10
163.395140
 20
257.444788
 30
0.0
  0
SPLINE
  5
13c
100
AcDbEntity
  8
Calque_1
 62
7
100
AcDbSpline
 70
8
 71
3
 72
8
 73
4
 74
0
 40
0
 40
0
 40
0
 40
0
 40
1
 40
1
 40
1
 40
1
 10
163.395140
 20
257.444788
 30
0.0
 10
161.229332
 20
256.194359
 30
0.0
 10
158.560948
 20
256.194359
 30
0.0
 10
156.395140
 20
257.444788
 30
0.0
  0
SPLINE
  5
13d
100
AcDbEntity
  8
Calque_1
 62
7
100
AcDbSpline
 70
8
 71
3
 72
8
 73
4
 74
0
 40
0
 40
0
 40
0
 40
0
 40
1
 40
1
 40
1
 40
1
 10
156.395140
 20
257.444788
 30
0.0
 10
154.229332
 20
258.695218
 30
0.0
 10
152.895140
 20
261.006107
 30
0.0
 10
152.895140
 20
263.506966
 30
0.0
  0
SPLINE
  5
13e
100
AcDbEntity
  8
Calque_1
 62
7
100
AcDbSpline
 70
8
 71
3
 72
8
 73
4
 74
0
 40
0
 40
0
 40
0
 40
0
 40
1
 40
1
 40
1
 40
1
 10
152.895140
 20
263.506966
 30
0.0
 10
152.895140
 20
266.007825
 30
0.0
 10
154.229332
 20
268.318714
 30
0.0
 10
156.395140
 20
269.569144
 30
0.0
  0
SPLINE
  5
13f
100
AcDbEntity
  8
Calque_1
 62
7
100
AcDbSpline
 70
8
 71
3
 72
8
 73
4
 74
0
 40
0
 40
0
 40
0
 40
0
 40
1
 40
1
 40
1
 40
1
 10
156.395140
 20
269.569144
 30
0.0
 10
158.560948
 20
270.819573
 30
0.0
 10
161.229332
 20
270.819573
 30
0.0
 10
163.395140
 20
269.569144
 30
0.0
  0
SPLINE
  5
140
100
AcDbEntity
  8
Calque_1
 62
7
100
AcDbSpline
 70
8
 71
3
 72
8
 73
4
 74
0
 40
0
 40
0
 40
0
 40
0
 40
1
 40
1
 40
1
 40
1
 10
163.395140
 20
269.569144
 30
0.0
 10
165.560948
 20
268.318714
 30
0.0
 10
166.895140
 20
266.007825
 30
0.0
 10
166.895140
 20
263.506966
 30
0.0
  0
LWPOLYLINE
  5
141
100
AcDbEntity
  8
Calque_1
 62
7
100
AcDbPolyline
 90
1
 70
1
 10
152.054950
 20
263.472565
 30
0.0
  0
SPLINE
  5
142
100
AcDbEntity
  8
Calque_1
 62
7
100
AcDbSpline
 70
8
 71
3
 72
8
 73
4
 74
0
 40
0
 40
0
 40
0
 40
0
 40
1
 40
1
 40
1
 40
1
 10
122.451480
 20
247.686462
 30
0.0
 10
122.451480
 20
243.820469
 30
0.0
 10
119.317473
 20
240.686462
 30
0.0
 10
115.451480
 20
240.686462
 30
0.0
  0
SPLINE
  5
143
100
AcDbEntity
  8
Calque_1
 62
7
100
AcDbSpline
 70
8
 71
3
 72
8
 73
4
 74
0
 40
0
 40
0
 40
0
 40
0
 40
1
 40
1
 40
1
 40
1
 10
115.451480
 20
240.686462
 30
0.0
 10
111.585487
 20
240.686462
 30
0.0
 10
108.451480
 20
243.820469
 30
0.0
 10
108.451480
 20
247.686462
 30
0.0
  0
SPLINE
  5
144
100
AcDbEntity
  8
Calque_1
 62
7
100
AcDbSpline
 70
8
 71
3
 72
8
 73
4
 74
0
 40
0
 40
0
 40
0
 40
0
 40
1
 40
1
 40
1
 40
1
 10
108.451480
 20
247.686462
 30
0.0
 10
108.451480
 20
250.187321
 30
0.0
 10
109.785672
 20
252.498210
 30
0.0
 10
111.951480
 20
253.748640
 30
0.0
  0
SPLINE
  5
145
100
AcDbEntity
  8
Calque_1
 62
7
100
AcDbSpline
 70
8
 71
3
 72
8
 73
4
 74
0
 40
0
 40
0
 40
0
 40
0
 40
1
 40
1
 40
1
 40
1
 10
111.951480
 20
253.748640
 30
0.0
 10
114.117288
 20
254.999069
 30
0.0
 10
116.785672
 20
254.999069
 30
0.0
 10
118.951480
 20
253.748640
 30
0.0
  0
SPLINE
  5
146
100
AcDbEntity
  8
Calque_1
 62
7
100
AcDbSpline
 70
8
 71
3
 72
8
 73
4
 74
0
 40
0
 40
0
 40
0
 40
0
 40
1
 40
1
 40
1
 40
1
 10
118.951480
 20
253.748640
 30
0.0
 10
121.117288
 20
252.498210
 30
0.0
 10
122.451480
 20
250.187321
 30
0.0
 10
122.451480
 20
247.686462
 30
0.0
  0
LWPOLYLINE
  5
147
100
AcDbEntity
  8
Calque_1
 62
7
100
AcDbPolyline
 90
1
 70
1
 10
166.895140
 20
263.506966
 30
0.0
  0
SPLINE
  5
148
100
AcDbEntity
  8
Calque_1
 62
7
100
AcDbSpline
 70
8
 71
3
 72
8
 73
4
 74
0
 40
0
 40
0
 40
0
 40
0
 40
1
 40
1
 40
1
 40
1
 10
137.291690
 20
247.720856
 30
0.0
 10
137.291690
 20
245.219997
 30
0.0
 10
135.957498
 20
242.909108
 30
0.0
 10
133.791690
 20
241.658678
 30
0.0
  0
SPLINE
  5
149
100
AcDbEntity
  8
Calque_1
 62
7
100
AcDbSpline
 70
8
 71
3
 72
8
 73
4
 74
0
 40
0
 40
0
 40
0
 40
0
 40
1
 40
1
 40
1
 40
1
 10
133.791690
 20
241.658678
 30
0.0
 10
131.625882
 20
240.408249
 30
0.0
 10
128.957498
 20
240.408249
 30
0.0
 10
126.791690
 20
241.658678
 30
0.0
  0
SPLINE
  5
14a
100
AcDbEntity
  8
Calque_1
 62
7
100
AcDbSpline
 70
8
 71
3
 72
8
 73
4
 74
0
 40
0
 40
0
 40
0
 40
0
 40
1
 40
1
 40
1
 40
1
 10
126.791690
 20
241.658678
 30
0.0
 10
124.625882
 20
242.909108
 30
0.0
 10
123.291690
 20
245.219997
 30
0.0
 10
123.291690
 20
247.720856
 30
0.0
  0
SPLINE
  5
14b
100
AcDbEntity
  8
Calque_1
 62
7
100
AcDbSpline
 70
8
 71
3
 72
8
 73
4
 74
0
 40
0
 40
0
 40
0
 40
0
 40
1
 40
1
 40
1
 40
1
 10
123.291690
 20
247.720856
 30
0.0
 10
123.291690
 20
250.221715
 30
0.0
 10
124.625882
 20
252.532604
 30
0.0
 10
126.791690
 20
253.783034
 30
0.0
  0
SPLINE
  5
14c
100
AcDbEntity
  8
Calque_1
 62
7
100
AcDbSpline
 70
8
 71
3
 72
8
 73
4
 74
0
 40
0
 40
0
 40
0
 40
0
 40
1
 40
1
 40
1
 40
1
 10
126.791690
 20
253.783034
 30
0.0
 10
128.957498
 20
255.033463
 30
0.0
 10
131.625882
 20
255.033463
 30
0.0
 10
133.791690
 20
253.783034
 30
0.0
  0
SPLINE
  5
14d
100
AcDbEntity
  8
Calque_1
 62
7
100
AcDbSpline
 70
8
 71
3
 72
8
 73
4
 74
0
 40
0
 40
0
 40
0
 40
0
 40
1
 40
1
 40
1
 40
1
 10
133.791690
 20
253.783034
 30
0.0
 10
135.957498
 20
252.532604
 30
0.0
 10
137.291690
 20
250.221715
 30
0.0
 10
137.291690
 20
247.720856
 30
0.0
  0
LWPOLYLINE
  5
14e
100
AcDbEntity
  8
Calque_1
 62
7
100
AcDbPolyline
 90
1
 70
1
 10
122.451480
 20
247.686462
 30
0.0
  0
SPLINE
  5
14f
100
AcDbEntity
  8
Calque_1
 62
7
100
AcDbSpline
 70
8
 71
3
 72
8
 73
4
 74
0
 40
0
 40
0
 40
0
 40
0
 40
1
 40
1
 40
1
 40
1
 10
152.188580
 20
248.371841
 30
0.0
 10
152.188580
 20
245.870982
 30
0.0
 10
150.854388
 20
243.560093
 30
0.0
 10
148.688580
 20
242.309663
 30
0.0
  0
SPLINE
  5
150
100
AcDbEntity
  8
Calque_1
 62
7
100
AcDbSpline
 70
8
 71
3
 72
8
 73
4
 74
0
 40
0
 40
0
 40
0
 40
0
 40
1
 40
1
 40
1
 40
1
 10
148.688580
 20
242.309663
 30
0.0
 10
146.522772
 20
241.059234
 30
0.0
 10
143.854388
 20
241.059234
 30
0.0
 10
141.688580
 20
242.309663
 30
0.0
  0
SPLINE
  5
151
100
AcDbEntity
  8
Calque_1
 62
7
100
AcDbSpline
 70
8
 71
3
 72
8
 73
4
 74
0
 40
0
 40
0
 40
0
 40
0
 40
1
 40
1
 40
1
 40
1
 10
141.688580
 20
242.309663
 30
0.0
 10
139.522772
 20
243.560093
 30
0.0
 10
138.188580
 20
245.870982
 30
0.0
 10
138.188580
 20
248.371841
 30
0.0
  0
SPLINE
  5
152
100
AcDbEntity
  8
Calque_1
 62
7
100
AcDbSpline
 70
8
 71
3
 72
8
 73
4
 74
0
 40
0
 40
0
 40
0
 40
0
 40
1
 40
1
 40
1
 40
1
 10
138.188580
 20
248.371841
 30
0.0
 10
138.188580
 20
250.872700
 30
0.0
 10
139.522772
 20
253.183589
 30
0.0
 10
141.688580
 20
254.434019
 30
0.0
  0
SPLINE
  5
153
100
AcDbEntity
  8
Calque_1
 62
7
100
AcDbSpline
 70
8
 71
3
 72
8
 73
4
 74
0
 40
0
 40
0
 40
0
 40
0
 40
1
 40
1
 40
1
 40
1
 10
141.688580
 20
254.434019
 30
0.0
 10
143.854388
 20
255.684448
 30
0.0
 10
146.522772
 20
255.684448
 30
0.0
 10
148.688580
 20
254.434019
 30
0.0
  0
SPLINE
  5
154
100
AcDbEntity
  8
Calque_1
 62
7
100
AcDbSpline
 70
8
 71
3
 72
8
 73
4
 74
0
 40
0
 40
0
 40
0
 40
0
 40
1
 40
1
 40
1
 40
1
 10
148.688580
 20
254.434019
 30
0.0
 10
150.854388
 20
253.183589
 30
0.0
 10
152.188580
 20
250.872700
 30
0.0
 10
152.188580
 20
248.371841
 30
0.0
  0
LWPOLYLINE
  5
155
100
AcDbEntity
  8
Calque_1
 62
7
100
AcDbPolyline
 90
1
 70
1
 10
137.291690
 20
247.720856
 30
0.0
  0
SPLINE
  5
156
100
AcDbEntity
  8
Calque_1
 62
7
100
AcDbSpline
 70
8
 71
3
 72
8
 73
4
 74
0
 40
0
 40
0
 40
0
 40
0
 40
1
 40
1
 40
1
 40
1
 10
167.028780
 20
248.406242
 30
0.0
 10
167.028780
 20
245.905383
 30
0.0
 10
165.694588
 20
243.594494
 30
0.0
 10
163.528780
 20
242.344064
 30
0.0
  0
SPLINE
  5
157
100
AcDbEntity
  8
Calque_1
 62
7
100
AcDbSpline
 70
8
 71
3
 72
8
 73
4
 74
0
 40
0
 40
0
 40
0
 40
0
 40
1
 40
1
 40
1
 40
1
 10
163.528780
 20
242.344064
 30
0.0
 10
161.362972
 20
241.093635
 30
0.0
 10
158.694588
 20
241.093635
 30
0.0
 10
156.528780
 20
242.344064
 30
0.0
  0
SPLINE
  5
158
100
AcDbEntity
  8
Calque_1
 62
7
100
AcDbSpline
 70
8
 71
3
 72
8
 73
4
 74
0
 40
0
 40
0
 40
0
 40
0
 40
1
 40
1
 40
1
 40
1
 10
156.528780
 20
242.344064
 30
0.0
 10
154.362972
 20
243.594494
 30
0.0
 10
153.028780
 20
245.905383
 30
0.0
 10
153.028780
 20
248.406242
 30
0.0
  0
SPLINE
  5
159
100
AcDbEntity
  8
Calque_1
 62
7
100
AcDbSpline
 70
8
 71
3
 72
8
 73
4
 74
0
 40
0
 40
0
 40
0
 40
0
 40
1
 40
1
 40
1
 40
1
 10
153.028780
 20
248.406242
 30
0.0
 10
153.028780
 20
250.907101
 30
0.0
 10
154.362972
 20
253.217990
 30
0.0
 10
156.528780
 20
254.468420
 30
0.0
  0
SPLINE
  5
15a
100
AcDbEntity
  8
Calque_1
 62
7
100
AcDbSpline
 70
8
 71
3
 72
8
 73
4
 74
0
 40
0
 40
0
 40
0
 40
0
 40
1
 40
1
 40
1
 40
1
 10
156.528780
 20
254.468420
 30
0.0
 10
158.694588
 20
255.718849
 30
0.0
 10
161.362972
 20
255.718849
 30
0.0
 10
163.528780
 20
254.468420
 30
0.0
  0
SPLINE
  5
15b
100
AcDbEntity
  8
Calque_1
 62
7
100
AcDbSpline
 70
8
 71
3
 72
8
 73
4
 74
0
 40
0
 40
0
 40
0
 40
0
 40
1
 40
1
 40
1
 40
1
 10
163.528780
 20
254.468420
 30
0.0
 10
165.694588
 20
253.217990
 30
0.0
 10
167.028780
 20
250.907101
 30
0.0
 10
167.028780
 20
248.406242
 30
0.0
  0
LWPOLYLINE
  5
15c
100
AcDbEntity
  8
Calque_1
 62
7
100
AcDbPolyline
 90
1
 70
1
 10
152.188580
 20
248.371841
 30
0.0
  0
SPLINE
  5
15d
100
AcDbEntity
  8
Calque_1
 62
7
100
AcDbSpline
 70
8
 71
3
 72
8
 73
4
 74
0
 40
0
 40
0
 40
0
 40
0
 40
1
 40
1
 40
1
 40
1
 10
122.718750
 20
232.585732
 30
0.0
 10
122.718750
 20
230.084873
 30
0.0
 10
121.384558
 20
227.773984
 30
0.0
 10
119.218750
 20
226.523554
 30
0.0
  0
SPLINE
  5
15e
100
AcDbEntity
  8
Calque_1
 62
7
100
AcDbSpline
 70
8
 71
3
 72
8
 73
4
 74
0
 40
0
 40
0
 40
0
 40
0
 40
1
 40
1
 40
1
 40
1
 10
119.218750
 20
226.523554
 30
0.0
 10
117.052942
 20
225.273125
 30
0.0
 10
114.384558
 20
225.273125
 30
0.0
 10
112.218750
 20
226.523554
 30
0.0
  0
SPLINE
  5
15f
100
AcDbEntity
  8
Calque_1
 62
7
100
AcDbSpline
 70
8
 71
3
 72
8
 73
4
 74
0
 40
0
 40
0
 40
0
 40
0
 40
1
 40
1
 40
1
 40
1
 10
112.218750
 20
226.523554
 30
0.0
 10
110.052942
 20
227.773984
 30
0.0
 10
108.718750
 20
230.084873
 30
0.0
 10
108.718750
 20
232.585732
 30
0.0
  0
SPLINE
  5
160
100
AcDbEntity
  8
Calque_1
 62
7
100
AcDbSpline
 70
8
 71
3
 72
8
 73
4
 74
0
 40
0
 40
0
 40
0
 40
0
 40
1
 40
1
 40
1
 40
1
 10
108.718750
 20
232.585732
 30
0.0
 10
108.718750
 20
235.086591
 30
0.0
 10
110.052942
 20
237.397480
 30
0.0
 10
112.218750
 20
238.647910
 30
0.0
  0
SPLINE
  5
161
100
AcDbEntity
  8
Calque_1
 62
7
100
AcDbSpline
 70
8
 71
3
 72
8
 73
4
 74
0
 40
0
 40
0
 40
0
 40
0
 40
1
 40
1
 40
1
 40
1
 10
112.218750
 20
238.647910
 30
0.0
 10
114.384558
 20
239.898339
 30
0.0
 10
117.052942
 20
239.898339
 30
0.0
 10
119.218750
 20
238.647910
 30
0.0
  0
SPLINE
  5
162
100
AcDbEntity
  8
Calque_1
 62
7
100
AcDbSpline
 70
8
 71
3
 72
8
 73
4
 74
0
 40
0
 40
0
 40
0
 40
0
 40
1
 40
1
 40
1
 40
1
 10
119.218750
 20
238.647910
 30
0.0
 10
121.384558
 20
237.397480
 30
0.0
 10
122.718750
 20
235.086591
 30
0.0
 10
122.718750
 20
232.585732
 30
0.0
  0
LWPOLYLINE
  5
163
100
AcDbEntity
  8
Calque_1
 62
7
100
AcDbPolyline
 90
1
 70
1
 10
167.028780
 20
248.406242
 30
0.0
  0
SPLINE
  5
164
100
AcDbEntity
  8
Calque_1
 62
7
100
AcDbSpline
 70
8
 71
3
 72
8
 73
4
 74
0
 40
0
 40
0
 40
0
 40
0
 40
1
 40
1
 40
1
 40
1
 10
137.558960
 20
232.620132
 30
0.0
 10
137.558960
 20
230.119273
 30
0.0
 10
136.224768
 20
227.808384
 30
0.0
 10
134.058960
 20
226.557954
 30
0.0
  0
SPLINE
  5
165
100
AcDbEntity
  8
Calque_1
 62
7
100
AcDbSpline
 70
8
 71
3
 72
8
 73
4
 74
0
 40
0
 40
0
 40
0
 40
0
 40
1
 40
1
 40
1
 40
1
 10
134.058960
 20
226.557954
 30
0.0
 10
131.893152
 20
225.307525
 30
0.0
 10
129.224768
 20
225.307525
 30
0.0
 10
127.058960
 20
226.557954
 30
0.0
  0
SPLINE
  5
166
100
AcDbEntity
  8
Calque_1
 62
7
100
AcDbSpline
 70
8
 71
3
 72
8
 73
4
 74
0
 40
0
 40
0
 40
0
 40
0
 40
1
 40
1
 40
1
 40
1
 10
127.058960
 20
226.557954
 30
0.0
 10
124.893152
 20
227.808384
 30
0.0
 10
123.558960
 20
230.119273
 30
0.0
 10
123.558960
 20
232.620132
 30
0.0
  0
SPLINE
  5
167
100
AcDbEntity
  8
Calque_1
 62
7
100
AcDbSpline
 70
8
 71
3
 72
8
 73
4
 74
0
 40
0
 40
0
 40
0
 40
0
 40
1
 40
1
 40
1
 40
1
 10
123.558960
 20
232.620132
 30
0.0
 10
123.558960
 20
235.120991
 30
0.0
 10
124.893152
 20
237.431880
 30
0.0
 10
127.058960
 20
238.682310
 30
0.0
  0
SPLINE
  5
168
100
AcDbEntity
  8
Calque_1
 62
7
100
AcDbSpline
 70
8
 71
3
 72
8
 73
4
 74
0
 40
0
 40
0
 40
0
 40
0
 40
1
 40
1
 40
1
 40
1
 10
127.058960
 20
238.682310
 30
0.0
 10
129.224768
 20
239.932739
 30
0.0
 10
131.893152
 20
239.932739
 30
0.0
 10
134.058960
 20
238.682310
 30
0.0
  0
SPLINE
  5
169
100
AcDbEntity
  8
Calque_1
 62
7
100
AcDbSpline
 70
8
 71
3
 72
8
 73
4
 74
0
 40
0
 40
0
 40
0
 40
0
 40
1
 40
1
 40
1
 40
1
 10
134.058960
 20
238.682310
 30
0.0
 10
136.224768
 20
237.431880
 30
0.0
 10
137.558960
 20
235.120991
 30
0.0
 10
137.558960
 20
232.620132
 30
0.0
  0
LWPOLYLINE
  5
16a
100
AcDbEntity
  8
Calque_1
 62
7
100
AcDbPolyline
 90
1
 70
1
 10
122.718750
 20
232.585732
 30
0.0
  0
SPLINE
  5
16b
100
AcDbEntity
  8
Calque_1
 62
7
100
AcDbSpline
 70
8
 71
3
 72
8
 73
4
 74
0
 40
0
 40
0
 40
0
 40
0
 40
1
 40
1
 40
1
 40
1
 10
152.455860
 20
233.271111
 30
0.0
 10
152.455860
 20
230.770252
 30
0.0
 10
151.121668
 20
228.459363
 30
0.0
 10
148.955860
 20
227.208933
 30
0.0
  0
SPLINE
  5
16c
100
AcDbEntity
  8
Calque_1
 62
7
100
AcDbSpline
 70
8
 71
3
 72
8
 73
4
 74
0
 40
0
 40
0
 40
0
 40
0
 40
1
 40
1
 40
1
 40
1
 10
148.955860
 20
227.208933
 30
0.0
 10
146.790052
 20
225.958504
 30
0.0
 10
144.121668
 20
225.958504
 30
0.0
 10
141.955860
 20
227.208933
 30
0.0
  0
SPLINE
  5
16d
100
AcDbEntity
  8
Calque_1
 62
7
100
AcDbSpline
 70
8
 71
3
 72
8
 73
4
 74
0
 40
0
 40
0
 40
0
 40
0
 40
1
 40
1
 40
1
 40
1
 10
141.955860
 20
227.208933
 30
0.0
 10
139.790052
 20
228.459363
 30
0.0
 10
138.455860
 20
230.770252
 30
0.0
 10
138.455860
 20
233.271111
 30
0.0
  0
SPLINE
  5
16e
100
AcDbEntity
  8
Calque_1
 62
7
100
AcDbSpline
 70
8
 71
3
 72
8
 73
4
 74
0
 40
0
 40
0
 40
0
 40
0
 40
1
 40
1
 40
1
 40
1
 10
138.455860
 20
233.271111
 30
0.0
 10
138.455860
 20
235.771970
 30
0.0
 10
139.790052
 20
238.082859
 30
0.0
 10
141.955860
 20
239.333289
 30
0.0
  0
SPLINE
  5
16f
100
AcDbEntity
  8
Calque_1
 62
7
100
AcDbSpline
 70
8
 71
3
 72
8
 73
4
 74
0
 40
0
 40
0
 40
0
 40
0
 40
1
 40
1
 40
1
 40
1
 10
141.955860
 20
239.333289
 30
0.0
 10
144.121668
 20
240.583718
 30
0.0
 10
146.790052
 20
240.583718
 30
0.0
 10
148.955860
 20
239.333289
 30
0.0
  0
SPLINE
  5
170
100
AcDbEntity
  8
Calque_1
 62
7
100
AcDbSpline
 70
8
 71
3
 72
8
 73
4
 74
0
 40
0
 40
0
 40
0
 40
0
 40
1
 40
1
 40
1
 40
1
 10
148.955860
 20
239.333289
 30
0.0
 10
151.121668
 20
238.082859
 30
0.0
 10
152.455860
 20
235.771970
 30
0.0
 10
152.455860
 20
233.271111
 30
0.0
  0
LWPOLYLINE
  5
171
100
AcDbEntity
  8
Calque_1
 62
7
100
AcDbPolyline
 90
1
 70
1
 10
137.558960
 20
232.620132
 30
0.0
  0
SPLINE
  5
172
100
AcDbEntity
  8
Calque_1
 62
7
100
AcDbSpline
 70
8
 71
3
 72
8
 73
4
 74
0
 40
0
 40
0
 40
0
 40
0
 40
1
 40
1
 40
1
 40
1
 10
167.296050
 20
233.305511
 30
0.0
 10
167.296050
 20
230.804652
 30
0.0
 10
165.961858
 20
228.493763
 30
0.0
 10
163.796050
 20
227.243333
 30
0.0
  0
SPLINE
  5
173
100
AcDbEntity
  8
Calque_1
 62
7
100
AcDbSpline
 70
8
 71
3
 72
8
 73
4
 74
0
 40
0
 40
0
 40
0
 40
0
 40
1
 40
1
 40
1
 40
1
 10
163.796050
 20
227.243333
 30
0.0
 10
161.630242
 20
225.992904
 30
0.0
 10
158.961858
 20
225.992904
 30
0.0
 10
156.796050
 20
227.243333
 30
0.0
  0
SPLINE
  5
174
100
AcDbEntity
  8
Calque_1
 62
7
100
AcDbSpline
 70
8
 71
3
 72
8
 73
4
 74
0
 40
0
 40
0
 40
0
 40
0
 40
1
 40
1
 40
1
 40
1
 10
156.796050
 20
227.243333
 30
0.0
 10
154.630242
 20
228.493763
 30
0.0
 10
153.296050
 20
230.804652
 30
0.0
 10
153.296050
 20
233.305511
 30
0.0
  0
SPLINE
  5
175
100
AcDbEntity
  8
Calque_1
 62
7
100
AcDbSpline
 70
8
 71
3
 72
8
 73
4
 74
0
 40
0
 40
0
 40
0
 40
0
 40
1
 40
1
 40
1
 40
1
 10
153.296050
 20
233.305511
 30
0.0
 10
153.296050
 20
235.806370
 30
0.0
 10
154.630242
 20
238.117259
 30
0.0
 10
156.796050
 20
239.367689
 30
0.0
  0
SPLINE
  5
176
100
AcDbEntity
  8
Calque_1
 62
7
100
AcDbSpline
 70
8
 71
3
 72
8
 73
4
 74
0
 40
0
 40
0
 40
0
 40
0
 40
1
 40
1
 40
1
 40
1
 10
156.796050
 20
239.367689
 30
0.0
 10
158.961858
 20
240.618118
 30
0.0
 10
161.630242
 20
240.618118
 30
0.0
 10
163.796050
 20
239.367689
 30
0.0
  0
SPLINE
  5
177
100
AcDbEntity
  8
Calque_1
 62
7
100
AcDbSpline
 70
8
 71
3
 72
8
 73
4
 74
0
 40
0
 40
0
 40
0
 40
0
 40
1
 40
1
 40
1
 40
1
 10
163.796050
 20
239.367689
 30
0.0
 10
165.961858
 20
238.117259
 30
0.0
 10
167.296050
 20
235.806370
 30
0.0
 10
167.296050
 20
233.305511
 30
0.0
  0
LWPOLYLINE
  5
178
100
AcDbEntity
  8
Calque_1
 62
7
100
AcDbPolyline
 90
1
 70
1
 10
152.455860
 20
233.271111
 30
0.0
  0
SPLINE
  5
179
100
AcDbEntity
  8
Calque_1
 62
7
100
AcDbSpline
 70
8
 71
3
 72
8
 73
4
 74
0
 40
0
 40
0
 40
0
 40
0
 40
1
 40
1
 40
1
 40
1
 10
122.718750
 20
217.752266
 30
0.0
 10
122.718750
 20
215.251407
 30
0.0
 10
121.384558
 20
212.940518
 30
0.0
 10
119.218750
 20
211.690088
 30
0.0
  0
SPLINE
  5
17a
100
AcDbEntity
  8
Calque_1
 62
7
100
AcDbSpline
 70
8
 71
3
 72
8
 73
4
 74
0
 40
0
 40
0
 40
0
 40
0
 40
1
 40
1
 40
1
 40
1
 10
119.218750
 20
211.690088
 30
0.0
 10
117.052942
 20
210.439659
 30
0.0
 10
114.384558
 20
210.439659
 30
0.0
 10
112.218750
 20
211.690088
 30
0.0
  0
SPLINE
  5
17b
100
AcDbEntity
  8
Calque_1
 62
7
100
AcDbSpline
 70
8
 71
3
 72
8
 73
4
 74
0
 40
0
 40
0
 40
0
 40
0
 40
1
 40
1
 40
1
 40
1
 10
112.218750
 20
211.690088
 30
0.0
 10
110.052942
 20
212.940518
 30
0.0
 10
108.718750
 20
215.251407
 30
0.0
 10
108.718750
 20
217.752266
 30
0.0
  0
SPLINE
  5
17c
100
AcDbEntity
  8
Calque_1
 62
7
100
AcDbSpline
 70
8
 71
3
 72
8
 73
4
 74
0
 40
0
 40
0
 40
0
 40
0
 40
1
 40
1
 40
1
 40
1
 10
108.718750
 20
217.752266
 30
0.0
 10
108.718750
 20
220.253125
 30
0.0
 10
110.052942
 20
222.564014
 30
0.0
 10
112.218750
 20
223.814444
 30
0.0
  0
SPLINE
  5
17d
100
AcDbEntity
  8
Calque_1
 62
7
100
AcDbSpline
 70
8
 71
3
 72
8
 73
4
 74
0
 40
0
 40
0
 40
0
 40
0
 40
1
 40
1
 40
1
 40
1
 10
112.218750
 20
223.814444
 30
0.0
 10
114.384558
 20
225.064873
 30
0.0
 10
117.052942
 20
225.064873
 30
0.0
 10
119.218750
 20
223.814444
 30
0.0
  0
SPLINE
  5
17e
100
AcDbEntity
  8
Calque_1
 62
7
100
AcDbSpline
 70
8
 71
3
 72
8
 73
4
 74
0
 40
0
 40
0
 40
0
 40
0
 40
1
 40
1
 40
1
 40
1
 10
119.218750
 20
223.814444
 30
0.0
 10
121.384558
 20
222.564014
 30
0.0
 10
122.718750
 20
220.253125
 30
0.0
 10
122.718750
 20
217.752266
 30
0.0
  0
LWPOLYLINE
  5
17f
100
AcDbEntity
  8
Calque_1
 62
7
100
AcDbPolyline
 90
1
 70
1
 10
167.296050
 20
233.305511
 30
0.0
  0
SPLINE
  5
180
100
AcDbEntity
  8
Calque_1
 62
7
100
AcDbSpline
 70
8
 71
3
 72
8
 73
4
 74
0
 40
0
 40
0
 40
0
 40
0
 40
1
 40
1
 40
1
 40
1
 10
137.558960
 20
217.786674
 30
0.0
 10
137.558960
 20
215.285815
 30
0.0
 10
136.224768
 20
212.974926
 30
0.0
 10
134.058960
 20
211.724496
 30
0.0
  0
SPLINE
  5
181
100
AcDbEntity
  8
Calque_1
 62
7
100
AcDbSpline
 70
8
 71
3
 72
8
 73
4
 74
0
 40
0
 40
0
 40
0
 40
0
 40
1
 40
1
 40
1
 40
1
 10
134.058960
 20
211.724496
 30
0.0
 10
131.893152
 20
210.474067
 30
0.0
 10
129.224768
 20
210.474067
 30
0.0
 10
127.058960
 20
211.724496
 30
0.0
  0
SPLINE
  5
182
100
AcDbEntity
  8
Calque_1
 62
7
100
AcDbSpline
 70
8
 71
3
 72
8
 73
4
 74
0
 40
0
 40
0
 40
0
 40
0
 40
1
 40
1
 40
1
 40
1
 10
127.058960
 20
211.724496
 30
0.0
 10
124.893152
 20
212.974926
 30
0.0
 10
123.558960
 20
215.285815
 30
0.0
 10
123.558960
 20
217.786674
 30
0.0
  0
SPLINE
  5
183
100
AcDbEntity
  8
Calque_1
 62
7
100
AcDbSpline
 70
8
 71
3
 72
8
 73
4
 74
0
 40
0
 40
0
 40
0
 40
0
 40
1
 40
1
 40
1
 40
1
 10
123.558960
 20
217.786674
 30
0.0
 10
123.558960
 20
220.287533
 30
0.0
 10
124.893152
 20
222.598422
 30
0.0
 10
127.058960
 20
223.848852
 30
0.0
  0
SPLINE
  5
184
100
AcDbEntity
  8
Calque_1
 62
7
100
AcDbSpline
 70
8
 71
3
 72
8
 73
4
 74
0
 40
0
 40
0
 40
0
 40
0
 40
1
 40
1
 40
1
 40
1
 10
127.058960
 20
223.848852
 30
0.0
 10
129.224768
 20
225.099281
 30
0.0
 10
131.893152
 20
225.099281
 30
0.0
 10
134.058960
 20
223.848852
 30
0.0
  0
SPLINE
  5
185
100
AcDbEntity
  8
Calque_1
 62
7
100
AcDbSpline
 70
8
 71
3
 72
8
 73
4
 74
0
 40
0
 40
0
 40
0
 40
0
 40
1
 40
1
 40
1
 40
1
 10
134.058960
 20
223.848852
 30
0.0
 10
136.224768
 20
222.598422
 30
0.0
 10
137.558960
 20
220.287533
 30
0.0
 10
137.558960
 20
217.786674
 30
0.0
  0
LWPOLYLINE
  5
186
100
AcDbEntity
  8
Calque_1
 62
7
100
AcDbPolyline
 90
1
 70
1
 10
122.718750
 20
217.752266
 30
0.0
  0
SPLINE
  5
187
100
AcDbEntity
  8
Calque_1
 62
7
100
AcDbSpline
 70
8
 71
3
 72
8
 73
4
 74
0
 40
0
 40
0
 40
0
 40
0
 40
1
 40
1
 40
1
 40
1
 10
152.455860
 20
218.437645
 30
0.0
 10
152.455860
 20
215.936786
 30
0.0
 10
151.121668
 20
213.625897
 30
0.0
 10
148.955860
 20
212.375467
 30
0.0
  0
SPLINE
  5
188
100
AcDbEntity
  8
Calque_1
 62
7
100
AcDbSpline
 70
8
 71
3
 72
8
 73
4
 74
0
 40
0
 40
0
 40
0
 40
0
 40
1
 40
1
 40
1
 40
1
 10
148.955860
 20
212.375467
 30
0.0
 10
146.790052
 20
211.125038
 30
0.0
 10
144.121668
 20
211.125038
 30
0.0
 10
141.955860
 20
212.375467
 30
0.0
  0
SPLINE
  5
189
100
AcDbEntity
  8
Calque_1
 62
7
100
AcDbSpline
 70
8
 71
3
 72
8
 73
4
 74
0
 40
0
 40
0
 40
0
 40
0
 40
1
 40
1
 40
1
 40
1
 10
141.955860
 20
212.375467
 30
0.0
 10
139.790052
 20
213.625897
 30
0.0
 10
138.455860
 20
215.936786
 30
0.0
 10
138.455860
 20
218.437645
 30
0.0
  0
SPLINE
  5
18a
100
AcDbEntity
  8
Calque_1
 62
7
100
AcDbSpline
 70
8
 71
3
 72
8
 73
4
 74
0
 40
0
 40
0
 40
0
 40
0
 40
1
 40
1
 40
1
 40
1
 10
138.455860
 20
218.437645
 30
0.0
 10
138.455860
 20
220.938504
 30
0.0
 10
139.790052
 20
223.249393
 30
0.0
 10
141.955860
 20
224.499823
 30
0.0
  0
SPLINE
  5
18b
100
AcDbEntity
  8
Calque_1
 62
7
100
AcDbSpline
 70
8
 71
3
 72
8
 73
4
 74
0
 40
0
 40
0
 40
0
 40
0
 40
1
 40
1
 40
1
 40
1
 10
141.955860
 20
224.499823
 30
0.0
 10
144.121668
 20
225.750252
 30
0.0
 10
146.790052
 20
225.750252
 30
0.0
 10
148.955860
 20
224.499823
 30
0.0
  0
SPLINE
  5
18c
100
AcDbEntity
  8
Calque_1
 62
7
100
AcDbSpline
 70
8
 71
3
 72
8
 73
4
 74
0
 40
0
 40
0
 40
0
 40
0
 40
1
 40
1
 40
1
 40
1
 10
148.955860
 20
224.499823
 30
0.0
 10
151.121668
 20
223.249393
 30
0.0
 10
152.455860
 20
220.938504
 30
0.0
 10
152.455860
 20
218.437645
 30
0.0
  0
LWPOLYLINE
  5
18d
100
AcDbEntity
  8
Calque_1
 62
7
100
AcDbPolyline
 90
1
 70
1
 10
137.558960
 20
217.786674
 30
0.0
  0
SPLINE
  5
18e
100
AcDbEntity
  8
Calque_1
 62
7
100
AcDbSpline
 70
8
 71
3
 72
8
 73
4
 74
0
 40
0
 40
0
 40
0
 40
0
 40
1
 40
1
 40
1
 40
1
 10
167.296070
 20
218.472038
 30
0.0
 10
167.296070
 20
215.971179
 30
0.0
 10
165.961878
 20
213.660290
 30
0.0
 10
163.796070
 20
212.409860
 30
0.0
  0
SPLINE
  5
18f
100
AcDbEntity
  8
Calque_1
 62
7
100
AcDbSpline
 70
8
 71
3
 72
8
 73
4
 74
0
 40
0
 40
0
 40
0
 40
0
 40
1
 40
1
 40
1
 40
1
 10
163.796070
 20
212.409860
 30
0.0
 10
161.630262
 20
211.159431
 30
0.0
 10
158.961878
 20
211.159431
 30
0.0
 10
156.796070
 20
212.409860
 30
0.0
  0
SPLINE
  5
190
100
AcDbEntity
  8
Calque_1
 62
7
100
AcDbSpline
 70
8
 71
3
 72
8
 73
4
 74
0
 40
0
 40
0
 40
0
 40
0
 40
1
 40
1
 40
1
 40
1
 10
156.796070
 20
212.409860
 30
0.0
 10
154.630262
 20
213.660290
 30
0.0
 10
153.296070
 20
215.971179
 30
0.0
 10
153.296070
 20
218.472038
 30
0.0
  0
SPLINE
  5
191
100
AcDbEntity
  8
Calque_1
 62
7
100
AcDbSpline
 70
8
 71
3
 72
8
 73
4
 74
0
 40
0
 40
0
 40
0
 40
0
 40
1
 40
1
 40
1
 40
1
 10
153.296070
 20
218.472038
 30
0.0
 10
153.296070
 20
220.972897
 30
0.0
 10
154.630262
 20
223.283786
 30
0.0
 10
156.796070
 20
224.534216
 30
0.0
  0
SPLINE
  5
192
100
AcDbEntity
  8
Calque_1
 62
7
100
AcDbSpline
 70
8
 71
3
 72
8
 73
4
 74
0
 40
0
 40
0
 40
0
 40
0
 40
1
 40
1
 40
1
 40
1
 10
156.796070
 20
224.534216
 30
0.0
 10
158.961878
 20
225.784645
 30
0.0
 10
161.630262
 20
225.784645
 30
0.0
 10
163.796070
 20
224.534216
 30
0.0
  0
SPLINE
  5
193
100
AcDbEntity
  8
Calque_1
 62
7
100
AcDbSpline
 70
8
 71
3
 72
8
 73
4
 74
0
 40
0
 40
0
 40
0
 40
0
 40
1
 40
1
 40
1
 40
1
 10
163.796070
 20
224.534216
 30
0.0
 10
165.961878
 20
223.283786
 30
0.0
 10
167.296070
 20
220.972897
 30
0.0
 10
167.296070
 20
218.472038
 30
0.0
  0
LWPOLYLINE
  5
194
100
AcDbEntity
  8
Calque_1
 62
7
100
AcDbPolyline
 90
1
 70
1
 10
152.455860
 20
218.437645
 30
0.0
  0
LWPOLYLINE
  5
195
100
AcDbEntity
  8
Calque_1
 62
7
100
AcDbPolyline
 90
1
 70
1
 10
167.296070
 20
218.472038
 30
0.0
  0
LWPOLYLINE
  5
196
100
AcDbEntity
  8
Calque_1
 62
7
100
AcDbPolyline
 90
3
 70
1
 10
69.416841
 20
179.619314
 30
0.0
 10
55.663647
 20
179.576464
 30
0.0
 10
62.502841
 20
191.397420
 30
0.0
  0
LWPOLYLINE
  5
197
100
AcDbEntity
  8
Calque_1
 62
7
100
AcDbPolyline
 90
3
 70
1
 10
21.318069
 20
167.669994
 30
0.0
 10
7.564875
 20
167.627144
 30
0.0
 10
14.404069
 20
179.448100
 30
0.0
  0
LWPOLYLINE
  5
198
100
AcDbEntity
  8
Calque_1
 62
7
100
AcDbPolyline
 90
3
 70
1
 10
35.071261
 20
167.712784
 30
0.0
 10
21.318067
 20
167.669934
 30
0.0
 10
28.157261
 20
179.490890
 30
0.0
  0
LWPOLYLINE
  5
199
100
AcDbEntity
  8
Calque_1
 62
7
100
AcDbPolyline
 90
3
 70
1
 10
48.824454
 20
167.755564
 30
0.0
 10
35.071261
 20
167.712714
 30
0.0
 10
41.910454
 20
179.533670
 30
0.0
  0
LWPOLYLINE
  5
19a
100
AcDbEntity
  8
Calque_1
 62
7
100
AcDbPolyline
 90
3
 70
1
 10
62.577648
 20
167.798354
 30
0.0
 10
48.824455
 20
167.755504
 30
0.0
 10
55.663648
 20
179.576460
 30
0.0
  0
LWPOLYLINE
  5
19b
100
AcDbEntity
  8
Calque_1
 62
7
100
AcDbPolyline
 90
3
 70
1
 10
76.330840
 20
167.841144
 30
0.0
 10
62.577646
 20
167.798294
 30
0.0
 10
69.416840
 20
179.619250
 30
0.0
  0
LWPOLYLINE
  5
19c
100
AcDbEntity
  8
Calque_1
 62
7
100
AcDbPolyline
 90
3
 70
1
 10
34.996457
 20
191.311910
 30
0.0
 10
21.243263
 20
191.269060
 30
0.0
 10
28.082457
 20
203.090016
 30
0.0
  0
LWPOLYLINE
  5
19d
100
AcDbEntity
  8
Calque_1
 62
7
100
AcDbPolyline
 90
3
 70
1
 10
48.749647
 20
191.354700
 30
0.0
 10
34.996454
 20
191.311850
 30
0.0
 10
41.835647
 20
203.132806
 30
0.0
  0
LWPOLYLINE
  5
19e
100
AcDbEntity
  8
Calque_1
 62
7
100
AcDbPolyline
 90
3
 70
1
 10
62.502841
 20
191.397480
 30
0.0
 10
48.749647
 20
191.354630
 30
0.0
 10
55.588841
 20
203.175586
 30
0.0
  0
LWPOLYLINE
  5
19f
100
AcDbEntity
  8
Calque_1
 62
7
100
AcDbPolyline
 90
3
 70
1
 10
76.256034
 20
191.440270
 30
0.0
 10
62.502840
 20
191.397420
 30
0.0
 10
69.342034
 20
203.218376
 30
0.0
  0
LWPOLYLINE
  5
1a0
100
AcDbEntity
  8
Calque_1
 62
7
100
AcDbPolyline
 90
6
 70
1
 10
153.609522
 20
195.409336
 30
0.0
 10
150.141243
 20
189.467775
 30
0.0
 10
143.204687
 20
189.467775
 30
0.0
 10
139.736408
 20
195.409336
 30
0.0
 10
143.204687
 20
201.350886
 30
0.0
 10
150.141243
 20
201.350886
 30
0.0
  0
LWPOLYLINE
  5
1a1
100
AcDbEntity
  8
Calque_1
 62
7
100
AcDbPolyline
 90
6
 70
1
 10
164.014362
 20
189.467778
 30
0.0
 10
160.546083
 20
183.526217
 30
0.0
 10
153.609527
 20
183.526217
 30
0.0
 10
150.141248
 20
189.467778
 30
0.0
 10
153.609527
 20
195.409328
 30
0.0
 10
160.546083
 20
195.409328
 30
0.0
  0
LWPOLYLINE
  5
1a2
100
AcDbEntity
  8
Calque_1
 62
7
100
AcDbPolyline
 90
6
 70
1
 10
153.609522
 20
183.526220
 30
0.0
 10
150.141243
 20
177.584659
 30
0.0
 10
143.204687
 20
177.584659
 30
0.0
 10
139.736408
 20
183.526220
 30
0.0
 10
143.204687
 20
189.467770
 30
0.0
 10
150.141243
 20
189.467770
 30
0.0
  0
LWPOLYLINE
  5
1a3
100
AcDbEntity
  8
Calque_1
 62
7
100
AcDbPolyline
 90
6
 70
1
 10
164.014362
 20
177.584662
 30
0.0
 10
160.546083
 20
171.643101
 30
0.0
 10
153.609527
 20
171.643101
 30
0.0
 10
150.141248
 20
177.584662
 30
0.0
 10
153.609527
 20
183.526212
 30
0.0
 10
160.546083
 20
183.526212
 30
0.0
  0
LWPOLYLINE
  5
1a4
100
AcDbEntity
  8
Calque_1
 62
7
100
AcDbPolyline
 90
6
 70
1
 10
174.419192
 20
171.643112
 30
0.0
 10
170.950913
 20
165.701551
 30
0.0
 10
164.014357
 20
165.701551
 30
0.0
 10
160.546078
 20
171.643112
 30
0.0
 10
164.014357
 20
177.584662
 30
0.0
 10
170.950913
 20
177.584662
 30
0.0
  0
LWPOLYLINE
  5
1a5
100
AcDbEntity
  8
Calque_1
 62
7
100
AcDbPolyline
 90
6
 70
1
 10
174.419192
 20
183.526220
 30
0.0
 10
170.950913
 20
177.584659
 30
0.0
 10
164.014357
 20
177.584659
 30
0.0
 10
160.546078
 20
183.526220
 30
0.0
 10
164.014357
 20
189.467770
 30
0.0
 10
170.950913
 20
189.467770
 30
0.0
  0
LWPOLYLINE
  5
1a6
100
AcDbEntity
  8
Calque_1
 62
7
100
AcDbPolyline
 90
6
 70
1
 10
153.609522
 20
171.643106
 30
0.0
 10
150.141243
 20
165.701545
 30
0.0
 10
143.204687
 20
165.701545
 30
0.0
 10
139.736408
 20
171.643106
 30
0.0
 10
143.204687
 20
177.584656
 30
0.0
 10
150.141243
 20
177.584656
 30
0.0
  0
LWPOLYLINE
  5
1a7
100
AcDbEntity
  8
Calque_1
 62
7
100
AcDbPolyline
 90
6
 70
1
 10
164.014362
 20
165.701556
 30
0.0
 10
160.546083
 20
159.759995
 30
0.0
 10
153.609527
 20
159.759995
 30
0.0
 10
150.141248
 20
165.701556
 30
0.0
 10
153.609527
 20
171.643106
 30
0.0
 10
160.546083
 20
171.643106
 30
0.0
  0
LWPOLYLINE
  5
1a8
100
AcDbEntity
  8
Calque_1
 62
7
100
AcDbPolyline
 90
6
 70
1
 10
153.609522
 20
159.759996
 30
0.0
 10
150.141243
 20
153.818435
 30
0.0
 10
143.204687
 20
153.818435
 30
0.0
 10
139.736408
 20
159.759996
 30
0.0
 10
143.204687
 20
165.701546
 30
0.0
 10
150.141243
 20
165.701546
 30
0.0
  0
LWPOLYLINE
  5
1a9
100
AcDbEntity
  8
Calque_1
 62
7
100
AcDbPolyline
 90
6
 70
1
 10
164.014362
 20
153.818436
 30
0.0
 10
160.546083
 20
147.876875
 30
0.0
 10
153.609527
 20
147.876875
 30
0.0
 10
150.141248
 20
153.818436
 30
0.0
 10
153.609527
 20
159.759986
 30
0.0
 10
160.546083
 20
159.759986
 30
0.0
  0
LWPOLYLINE
  5
1aa
100
AcDbEntity
  8
Calque_1
 62
7
100
AcDbPolyline
 90
6
 70
1
 10
174.419192
 20
147.876886
 30
0.0
 10
170.950913
 20
141.935325
 30
0.0
 10
164.014357
 20
141.935325
 30
0.0
 10
160.546078
 20
147.876886
 30
0.0
 10
164.014357
 20
153.818436
 30
0.0
 10
170.950913
 20
153.818436
 30
0.0
  0
LWPOLYLINE
  5
1ab
100
AcDbEntity
  8
Calque_1
 62
7
100
AcDbPolyline
 90
6
 70
1
 10
174.419192
 20
159.759996
 30
0.0
 10
170.950913
 20
153.818435
 30
0.0
 10
164.014357
 20
153.818435
 30
0.0
 10
160.546078
 20
159.759996
 30
0.0
 10
164.014357
 20
165.701546
 30
0.0
 10
170.950913
 20
165.701546
 30
0.0
  0
LWPOLYLINE
  5
1ac
100
AcDbEntity
  8
Calque_1
 62
7
100
AcDbPolyline
 90
6
 70
1
 10
184.824032
 20
177.584674
 30
0.0
 10
181.355753
 20
171.643113
 30
0.0
 10
174.419197
 20
171.643113
 30
0.0
 10
170.950918
 20
177.584674
 30
0.0
 10
174.419197
 20
183.526224
 30
0.0
 10
181.355753
 20
183.526224
 30
0.0
  0
LWPOLYLINE
  5
1ad
100
AcDbEntity
  8
Calque_1
 62
7
100
AcDbPolyline
 90
6
 70
1
 10
184.824032
 20
189.467774
 30
0.0
 10
181.355753
 20
183.526213
 30
0.0
 10
174.419197
 20
183.526213
 30
0.0
 10
170.950918
 20
189.467774
 30
0.0
 10
174.419197
 20
195.409324
 30
0.0
 10
181.355753
 20
195.409324
 30
0.0
  0
LWPOLYLINE
  5
1ae
100
AcDbEntity
  8
Calque_1
 62
7
100
AcDbPolyline
 90
6
 70
1
 10
184.824032
 20
153.818444
 30
0.0
 10
181.355753
 20
147.876883
 30
0.0
 10
174.419197
 20
147.876883
 30
0.0
 10
170.950918
 20
153.818444
 30
0.0
 10
174.419197
 20
159.759994
 30
0.0
 10
181.355753
 20
159.759994
 30
0.0
  0
LWPOLYLINE
  5
1af
100
AcDbEntity
  8
Calque_1
 62
7
100
AcDbPolyline
 90
6
 70
1
 10
184.824032
 20
165.701554
 30
0.0
 10
181.355753
 20
159.759993
 30
0.0
 10
174.419197
 20
159.759993
 30
0.0
 10
170.950918
 20
165.701554
 30
0.0
 10
174.419197
 20
171.643104
 30
0.0
 10
181.355753
 20
171.643104
 30
0.0
  0
LWPOLYLINE
  5
1b0
100
AcDbEntity
  8
Calque_1
 62
7
100
AcDbPolyline
 90
6
 70
1
 10
174.419202
 20
195.409332
 30
0.0
 10
170.950923
 20
189.467771
 30
0.0
 10
164.014367
 20
189.467771
 30
0.0
 10
160.546088
 20
195.409332
 30
0.0
 10
164.014367
 20
201.350882
 30
0.0
 10
170.950923
 20
201.350882
 30
0.0
  0
LWPOLYLINE
  5
1b1
100
AcDbEntity
  8
Calque_1
 62
7
100
AcDbPolyline
 90
6
 70
1
 10
153.609522
 20
147.876880
 30
0.0
 10
150.141243
 20
141.935319
 30
0.0
 10
143.204687
 20
141.935319
 30
0.0
 10
139.736408
 20
147.876880
 30
0.0
 10
143.204687
 20
153.818430
 30
0.0
 10
150.141243
 20
153.818430
 30
0.0
  0
LWPOLYLINE
  5
1b2
100
AcDbEntity
  8
Calque_1
 62
7
100
AcDbPolyline
 90
6
 70
1
 10
164.014362
 20
141.935328
 30
0.0
 10
160.546083
 20
135.993767
 30
0.0
 10
153.609527
 20
135.993767
 30
0.0
 10
150.141248
 20
141.935328
 30
0.0
 10
153.609527
 20
147.876878
 30
0.0
 10
160.546083
 20
147.876878
 30
0.0
  0
LWPOLYLINE
  5
1b3
100
AcDbEntity
  8
Calque_1
 62
7
100
AcDbPolyline
 90
6
 70
1
 10
184.824032
 20
141.935328
 30
0.0
 10
181.355753
 20
135.993767
 30
0.0
 10
174.419197
 20
135.993767
 30
0.0
 10
170.950918
 20
141.935328
 30
0.0
 10
174.419197
 20
147.876878
 30
0.0
 10
181.355753
 20
147.876878
 30
0.0
  0
ENDSEC
  0
SECTION
  2
OBJECTS
  0
DICTIONARY
  5
C
330
0
100
AcDbDictionary
  3
ACAD_GROUP
350
D
  3
ACAD_MLINESTYLE
350
17
  0
DICTIONARY
  5
D
330
C
100
AcDbDictionary
  0
DICTIONARY
  5
1A
330
C
100
AcDbDictionary
  0
DICTIONARY
  5
17
330
C
100
AcDbDictionary
  3
STANDARD
350
18
  0
DICTIONARY
  5
19
330
C
100
AcDbDictionary
  0
ENDSEC
  0
EOF
